<?xml version="1.0" encoding="UTF-8" standalone="no"?>
<svg
   viewBox="0 0 20.61 19.8"
   version="1.1"
   id="svg6"
   sodipodi:docname="logo.svg"
   width="20.610001"
   height="19.799999"
   inkscape:version="1.1.2 (b8e25be833, 2022-02-05)"
   inkscape:export-filename="C:\Users\mclea\Documents\projects\ProjectHub\client\src\openingTag.png"
   inkscape:export-xdpi="1863.17"
   inkscape:export-ydpi="1863.17"
   xmlns:inkscape="http://www.inkscape.org/namespaces/inkscape"
   xmlns:sodipodi="http://sodipodi.sourceforge.net/DTD/sodipodi-0.dtd"
   xmlns="http://www.w3.org/2000/svg"
   xmlns:svg="http://www.w3.org/2000/svg">
  <sodipodi:namedview
     id="namedview7"
     pagecolor="#505050"
     bordercolor="#eeeeee"
     borderopacity="1"
     inkscape:pageshadow="0"
     inkscape:pageopacity="0"
     inkscape:pagecheckerboard="0"
     showgrid="false"
     inkscape:zoom="36.313133"
     inkscape:cx="10.313073"
     inkscape:cy="9.8862304"
     inkscape:window-width="2560"
     inkscape:window-height="1377"
     inkscape:window-x="-8"
     inkscape:window-y="-8"
     inkscape:window-maximized="1"
     inkscape:current-layer="svg6" />
  <defs
     id="defs10" />
  <g
     fill="#000000"
     id="g4"
     transform="translate(-1.39,-2.81)">
    <path
       d="M9.4 16.6 4.8 12l4.6-4.6L8 6l-6 6 6 6 1.4-1.4zm5.2 0 4.6-4.6-4.6-4.6L16 6l6 6-6 6-1.4-1.4z"
       id="path3" />
  </g>
  <path
     style="fill:#ffffff;stroke-width:0.0550765;stroke-linecap:round;stroke-linejoin:round"
     d="M 3.6212692,12.171895 0.63347484,9.1840051 3.6212692,6.1961156 6.6090634,3.2082263 l 0.688449,0.688449 0.688449,0.688449 -2.2993166,2.2994403 -2.2993169,2.2994405 2.2993169,2.2994409 2.2993166,2.29944 -0.688449,0.688449 -0.688449,0.688449 z"
     id="path896" />
  <path
     style="fill:#ffffff;stroke-width:0.0550765;stroke-linecap:round;stroke-linejoin:round"
     d="m 13.913563,14.478101 -0.681295,-0.681704 2.299374,-2.29925 2.299373,-2.2992499 -2.299516,-2.2996388 -2.299517,-2.2996389 0.688608,-0.6881952 0.688609,-0.6881952 2.98782,2.9877251 2.98782,2.9877252 -2.980967,2.9810627 c -1.639533,1.639584 -2.987279,2.981063 -2.994991,2.981063 -0.0077,0 -0.320606,-0.306767 -0.695318,-0.681704 z"
     id="path935" />
</svg>
